<?xml version="1.0"?>
<svg xmlns="http://www.w3.org/2000/svg" id="Layer_1" data-name="Layer 1" viewBox="0 0 512 512" width="512" height="512"><title>Track delivery 2</title><path d="M229.358,399.531V275.485H205.3V399.531a1.835,1.835,0,0,0,1.738,2.032H231.1A1.836,1.836,0,0,1,229.358,399.531Z" style="fill:#d4e1f4"/><path d="M262,228.967H237.941a1.754,1.754,0,0,0-1.466.827l-26.554,41.679h24.06l26.554-41.679A1.751,1.751,0,0,1,262,228.967Z" style="fill:#d4e1f4"/><path d="M102,57.223a38.539,38.539,0,1,0,38.539,38.539A38.582,38.582,0,0,0,102,57.223Zm0,63.078a24.539,24.539,0,1,1,24.539-24.539A24.279,24.279,0,0,1,102,120.3Z" style="fill:#1ae5be"/><path d="M503.664,326.907c-.008-.108-.018-.216-.032-.323s-.033-.235-.054-.352-.041-.222-.066-.332-.054-.221-.085-.331-.063-.22-.1-.328-.076-.214-.117-.32-.084-.211-.131-.315-.1-.206-.148-.308-.105-.2-.161-.3-.115-.194-.175-.289-.131-.2-.2-.3-.126-.173-.193-.258-.159-.2-.243-.293c-.038-.044-.071-.09-.11-.133l-36.485-39.813A21.273,21.273,0,0,0,449.772,276H426.551c-.448,0-.912-.139-1.388-.139s-.939.139-1.388.139H378.76a6.9,6.9,0,0,0-6.76,7.118V398H353V271.926c0-.305-.234-.6-.272-.9-.009-.072-.125-.143-.137-.215a7.132,7.132,0,0,0-.218-.766c-.009-.036-.043-.074-.054-.11a7.054,7.054,0,0,0-.329-.855c-.019-.043-.048-.084-.068-.127a6.882,6.882,0,0,0-.384-.7c-.017-.03-.031-.062-.05-.091L325.753,227.88a12.764,12.764,0,0,0-10.88-5.88h-80.22a12.76,12.76,0,0,0-10.879,5.88l-25.735,40.327c-.018.029-.031.039-.049.068a7.123,7.123,0,0,0-.381.692c-.019.042-.042.078-.06.12a7.013,7.013,0,0,0-.317.852c-.01.037-.018.073-.028.11a6.9,6.9,0,0,0-.166.766c-.012.071.006.141,0,.212a7.033,7.033,0,0,0-.035.9v62.839l-90.384-95.627-10.161,9.615L197,355.149v44A12.82,12.82,0,0,0,209.844,412h36.3a31.78,31.78,0,0,0,62,0H409.034a31.78,31.78,0,0,0,62,0h11.491C494.2,412,504,402.56,504,390.89V327.459c0-.059-.161-.115-.163-.173C503.834,327.159,503.675,327.033,503.664,326.907ZM455.051,292.15,480.767,320H432V290h17.772A7.028,7.028,0,0,1,455.051,292.15ZM418,290v30H386V290Zm-85.18-25H282V236h32.271ZM262,279h26v58.163l-26-10.725Zm-26.744-43H268v29H216.705Zm41.89,186.842a17.788,17.788,0,1,1,17.789-17.788A17.808,17.808,0,0,1,277.146,422.842ZM334.512,398H308.148a31.78,31.78,0,0,0-62,0H211V350.135l.276-.261-.276-.292V279h37v52.094a6.987,6.987,0,0,0,4.28,6.455l39.572,16.6a6.975,6.975,0,0,0,2.7.544,7.741,7.741,0,0,0,4.1-1.17,7.223,7.223,0,0,0,3.346-5.83V279h37V398Zm105.524,24.842a17.788,17.788,0,1,1,17.787-17.788A17.809,17.809,0,0,1,440.036,422.842ZM490,390.89a7.4,7.4,0,0,1-7.472,7.11H471.037a31.781,31.781,0,0,0-62,0H386V334h37.782c.447,1,.908.138,1.381.138s.935.862,1.381-.138H490Z" style="fill:#0635c9"/><path d="M166.221,34.377a90.548,90.548,0,0,0-128.443,0A96.528,96.528,0,0,0,9.911,95.764c-1.548,21.676,5.329,44.128,19.4,63.266L96.4,248.642a7,7,0,0,0,11.207,0l67.119-89.661c14.036-19.089,20.913-41.541,19.366-63.206A96.533,96.533,0,0,0,166.221,34.377ZM163.479,150.64,102,232.766,40.556,150.688C28.487,134.275,22.564,115.124,23.877,96.75A82.532,82.532,0,0,1,47.7,44.256a76.548,76.548,0,0,1,108.6,0,82.545,82.545,0,0,1,23.821,52.506C181.434,115.124,175.511,134.275,163.479,150.64Z" style="fill:#1ae5be"/></svg>
